# xmcd
#
# Track frame offsets:
#	150
#	14762
#	33590
#	51562
#	66572
#	79538
#	94123
#	109319
#	124917
#	143784
#	156487
#	174074
#
# Disc length: 2481 seconds
#
# Revision: 1
# Processed by: cddbd v1.4PL0 Copyright (c) Steve Scherf et al.
# Submitted via: audiograbber 1.80
#
DISCID=ac09af0c
DTITLE=Os Nativos - Chama do Amor
DYEAR=1900
DGENRE=
TTITLE0=Capricha Gaiteiro
TTITLE1=Chama do Amor
TTITLE2=Não deu para te Esquecer
TTITLE3=Na Capela
TTITLE4=Jeitinho de Amar
TTITLE5=Fandangueira
TTITLE6=Vim te Buscar
TTITLE7=Bandoleiro Amor
TTITLE8=Bailão do Herança (Festa de Rodeio)
TTITLE9=Vem Morena
TTITLE10=Gaúchos de Deus
TTITLE11=Tio "Gome"
EXTD=
EXTT0=
EXTT1=
EXTT2=
EXTT3=
EXTT4=
EXTT5=
EXTT6=
EXTT7=
EXTT8=
EXTT9=
EXTT10=
EXTT11=
PLAYORDER=
